<?xml version="1.0" standalone="no"?>
<!DOCTYPE svg PUBLIC "-//W3C//DTD SVG 20010904//EN"
 "http://www.w3.org/TR/2001/REC-SVG-20010904/DTD/svg10.dtd">
<svg version="1.0" xmlns="http://www.w3.org/2000/svg"
 width="341.000000pt" height="341.000000pt" viewBox="0 0 341.000000 341.000000"
 preserveAspectRatio="xMidYMid meet">
<metadata>
Created by potrace 1.15, written by Peter Selinger 2001-2017
</metadata>
<g transform="translate(0.000000,341.000000) scale(0.100000,-0.100000)"
fill="#000000" stroke="none">
<path d="M1728 2576 c-62 -22 -476 -282 -531 -334 -93 -87 -99 -255 -12 -345
l35 -36 4 -248 c5 -260 14 -320 57 -404 27 -54 90 -121 147 -158 171 -109 465
-105 643 9 112 73 170 160 177 268 6 82 -16 141 -70 186 -41 36 -129 63 -169
53 -18 -5 -19 2 -19 124 l0 129 28 0 c76 1 167 79 198 171 21 64 24 169 5 222
-27 78 -114 146 -186 147 -30 0 -32 3 -43 60 -27 128 -145 198 -264 156z m102
-165 c5 -11 10 -60 10 -110 0 -111 6 -117 108 -102 82 11 112 0 125 -46 13
-45 0 -119 -27 -150 -21 -24 -32 -28 -107 -33 -111 -7 -109 -3 -109 -237 0
-207 10 -270 46 -304 23 -22 34 -24 103 -22 105 4 118 -8 112 -95 -2 -33 -73
-105 -133 -134 -137 -67 -336 -63 -448 7 -46 29 -95 92 -111 144 -7 21 -14
157 -18 329 -7 327 1 291 -76 345 -38 27 -36 89 6 128 49 45 460 299 486 299
12 0 27 -9 33 -19z"/>
</g>
</svg>
